<mxfile host="app.diagrams.net" modified="2024-07-13T03:30:30.525Z" agent="Mozilla/5.0 (Windows NT 10.0; WOW64) AppleWebKit/537.36 (KHTML, like Gecko) Chrome/94.0.4606.71 Safari/537.36 Core/1.94.172.400 QQBrowser/11.1.5140.400" etag="oQ0CLKAj-yWU43wNWi7e" version="24.6.5" type="github">
  <diagram name="Page-1" id="13e1069c-82ec-6db2-03f1-153e76fe0fe0">
    <mxGraphModel dx="1434" dy="825" grid="1" gridSize="10" guides="1" tooltips="1" connect="1" arrows="1" fold="1" page="1" pageScale="1" pageWidth="1100" pageHeight="850" background="none" math="0" shadow="0">
      <root>
        <mxCell id="0" />
        <mxCell id="1" parent="0" />
        <mxCell id="7baba1c4bc27f4b0-2" value="微信客户端" style="shape=umlLifeline;perimeter=lifelinePerimeter;whiteSpace=wrap;html=1;container=1;collapsible=0;recursiveResize=0;outlineConnect=0;rounded=1;shadow=0;comic=0;labelBackgroundColor=none;strokeWidth=1;fontFamily=Verdana;fontSize=12;align=center;fillColor=#f8cecc;strokeColor=#b85450;" parent="1" vertex="1">
          <mxGeometry x="240" y="80" width="140" height="710" as="geometry" />
        </mxCell>
        <mxCell id="7baba1c4bc27f4b0-10" value="" style="html=1;points=[];perimeter=orthogonalPerimeter;rounded=0;shadow=0;comic=0;labelBackgroundColor=none;strokeWidth=1;fontFamily=Verdana;fontSize=12;align=center;" parent="7baba1c4bc27f4b0-2" vertex="1">
          <mxGeometry x="65" y="370" width="10" height="280" as="geometry" />
        </mxCell>
        <mxCell id="UgXaeHITUK82c2qAMEl2-42" value="Alt" style="shape=umlFrame;whiteSpace=wrap;html=1;pointerEvents=0;" vertex="1" parent="7baba1c4bc27f4b0-2">
          <mxGeometry x="-30" y="530" width="280" height="150" as="geometry" />
        </mxCell>
        <mxCell id="UgXaeHITUK82c2qAMEl2-43" value="" style="endArrow=none;startArrow=none;endFill=0;startFill=0;endSize=8;html=1;verticalAlign=bottom;labelBackgroundColor=none;strokeWidth=3;rounded=0;fontSize=12;curved=1;exitX=0.004;exitY=0.533;exitDx=0;exitDy=0;exitPerimeter=0;" edge="1" parent="7baba1c4bc27f4b0-2" source="UgXaeHITUK82c2qAMEl2-42">
          <mxGeometry width="160" relative="1" as="geometry">
            <mxPoint x="10" y="610" as="sourcePoint" />
            <mxPoint x="250" y="610" as="targetPoint" />
          </mxGeometry>
        </mxCell>
        <mxCell id="UgXaeHITUK82c2qAMEl2-44" value="密码正确" style="text;html=1;align=center;verticalAlign=middle;resizable=0;points=[];autosize=1;strokeColor=none;fillColor=none;fontSize=16;" vertex="1" parent="7baba1c4bc27f4b0-2">
          <mxGeometry x="-35" y="571" width="90" height="30" as="geometry" />
        </mxCell>
        <mxCell id="UgXaeHITUK82c2qAMEl2-45" value="密码错误" style="text;html=1;align=center;verticalAlign=middle;resizable=0;points=[];autosize=1;strokeColor=none;fillColor=none;fontSize=16;" vertex="1" parent="7baba1c4bc27f4b0-2">
          <mxGeometry x="-35" y="620" width="90" height="30" as="geometry" />
        </mxCell>
        <mxCell id="UgXaeHITUK82c2qAMEl2-48" value="返回支付结果" style="html=1;verticalAlign=bottom;endArrow=open;dashed=1;endSize=8;curved=0;rounded=0;fontSize=12;" edge="1" parent="7baba1c4bc27f4b0-2" source="7baba1c4bc27f4b0-3">
          <mxGeometry relative="1" as="geometry">
            <mxPoint x="160" y="590" as="sourcePoint" />
            <mxPoint x="80" y="590" as="targetPoint" />
          </mxGeometry>
        </mxCell>
        <mxCell id="UgXaeHITUK82c2qAMEl2-49" value="支付密码错误" style="html=1;verticalAlign=bottom;endArrow=open;dashed=1;endSize=8;curved=0;rounded=0;fontSize=12;" edge="1" parent="7baba1c4bc27f4b0-2">
          <mxGeometry relative="1" as="geometry">
            <mxPoint x="205" y="634.5" as="sourcePoint" />
            <mxPoint x="75" y="634.5" as="targetPoint" />
          </mxGeometry>
        </mxCell>
        <mxCell id="7baba1c4bc27f4b0-3" value="微信支付系统" style="shape=umlLifeline;perimeter=lifelinePerimeter;whiteSpace=wrap;html=1;container=1;collapsible=0;recursiveResize=0;outlineConnect=0;rounded=1;shadow=0;comic=0;labelBackgroundColor=none;strokeWidth=1;fontFamily=Verdana;fontSize=12;align=center;fillColor=#e1d5e7;strokeColor=#9673a6;" parent="1" vertex="1">
          <mxGeometry x="400" y="80" width="100" height="690" as="geometry" />
        </mxCell>
        <mxCell id="7baba1c4bc27f4b0-13" value="" style="html=1;points=[];perimeter=orthogonalPerimeter;rounded=0;shadow=0;comic=0;labelBackgroundColor=none;strokeWidth=1;fontFamily=Verdana;fontSize=12;align=center;" parent="7baba1c4bc27f4b0-3" vertex="1">
          <mxGeometry x="45" y="180" width="10" height="100" as="geometry" />
        </mxCell>
        <mxCell id="UgXaeHITUK82c2qAMEl2-26" value="" style="html=1;points=[[0,0,0,0,5],[0,1,0,0,-5],[1,0,0,0,5],[1,1,0,0,-5]];perimeter=orthogonalPerimeter;outlineConnect=0;targetShapes=umlLifeline;portConstraint=eastwest;newEdgeStyle={&quot;curved&quot;:0,&quot;rounded&quot;:0};" vertex="1" parent="7baba1c4bc27f4b0-3">
          <mxGeometry x="50" y="230" width="10" height="40" as="geometry" />
        </mxCell>
        <mxCell id="UgXaeHITUK82c2qAMEl2-27" value="生成预支付交易码" style="html=1;align=left;spacingLeft=2;endArrow=block;rounded=0;edgeStyle=orthogonalEdgeStyle;curved=0;rounded=0;fontSize=12;startSize=8;endSize=8;exitX=0.8;exitY=0.29;exitDx=0;exitDy=0;exitPerimeter=0;" edge="1" target="UgXaeHITUK82c2qAMEl2-26" parent="7baba1c4bc27f4b0-3" source="7baba1c4bc27f4b0-13">
          <mxGeometry x="0.0108" relative="1" as="geometry">
            <mxPoint x="60" y="210" as="sourcePoint" />
            <Array as="points">
              <mxPoint x="53" y="210" />
              <mxPoint x="90" y="210" />
              <mxPoint x="90" y="240" />
            </Array>
            <mxPoint as="offset" />
          </mxGeometry>
        </mxCell>
        <mxCell id="UgXaeHITUK82c2qAMEl2-34" value="" style="html=1;points=[[0,0,0,0,5],[0,1,0,0,-5],[1,0,0,0,5],[1,1,0,0,-5]];perimeter=orthogonalPerimeter;outlineConnect=0;targetShapes=umlLifeline;portConstraint=eastwest;newEdgeStyle={&quot;curved&quot;:0,&quot;rounded&quot;:0};" vertex="1" parent="7baba1c4bc27f4b0-3">
          <mxGeometry x="45" y="430" width="10" height="30" as="geometry" />
        </mxCell>
        <mxCell id="UgXaeHITUK82c2qAMEl2-38" value="" style="html=1;points=[[0,0,0,0,5],[0,1,0,0,-5],[1,0,0,0,5],[1,1,0,0,-5]];perimeter=orthogonalPerimeter;outlineConnect=0;targetShapes=umlLifeline;portConstraint=eastwest;newEdgeStyle={&quot;curved&quot;:0,&quot;rounded&quot;:0};" vertex="1" parent="7baba1c4bc27f4b0-3">
          <mxGeometry x="45" y="490" width="10" height="160" as="geometry" />
        </mxCell>
        <mxCell id="7baba1c4bc27f4b0-4" value="商户后台系统" style="shape=umlLifeline;perimeter=lifelinePerimeter;whiteSpace=wrap;html=1;container=1;collapsible=0;recursiveResize=0;outlineConnect=0;rounded=1;shadow=0;comic=0;labelBackgroundColor=none;strokeWidth=1;fontFamily=Verdana;fontSize=12;align=center;fillColor=#60a917;fontColor=#ffffff;strokeColor=#2D7600;" parent="1" vertex="1">
          <mxGeometry x="540" y="80" width="100" height="680" as="geometry" />
        </mxCell>
        <mxCell id="7baba1c4bc27f4b0-16" value="" style="html=1;points=[];perimeter=orthogonalPerimeter;rounded=0;shadow=0;comic=0;labelBackgroundColor=none;strokeWidth=1;fontFamily=Verdana;fontSize=12;align=center;" parent="7baba1c4bc27f4b0-4" vertex="1">
          <mxGeometry x="45" y="80" width="10" height="110" as="geometry" />
        </mxCell>
        <mxCell id="7baba1c4bc27f4b0-22" value="" style="html=1;points=[];perimeter=orthogonalPerimeter;rounded=0;shadow=0;comic=0;labelBackgroundColor=none;strokeWidth=1;fontFamily=Verdana;fontSize=12;align=center;" parent="7baba1c4bc27f4b0-4" vertex="1">
          <mxGeometry x="45" y="280" width="10" height="60" as="geometry" />
        </mxCell>
        <mxCell id="UgXaeHITUK82c2qAMEl2-29" value="" style="html=1;points=[[0,0,0,0,5],[0,1,0,0,-5],[1,0,0,0,5],[1,1,0,0,-5]];perimeter=orthogonalPerimeter;outlineConnect=0;targetShapes=umlLifeline;portConstraint=eastwest;newEdgeStyle={&quot;curved&quot;:0,&quot;rounded&quot;:0};" vertex="1" parent="7baba1c4bc27f4b0-4">
          <mxGeometry x="50" y="305" width="10" height="25" as="geometry" />
        </mxCell>
        <mxCell id="UgXaeHITUK82c2qAMEl2-30" value="生成二维码图片" style="html=1;align=left;spacingLeft=2;endArrow=block;rounded=0;edgeStyle=orthogonalEdgeStyle;curved=0;rounded=0;fontSize=12;startSize=8;endSize=8;exitX=0.9;exitY=0.063;exitDx=0;exitDy=0;exitPerimeter=0;" edge="1" target="UgXaeHITUK82c2qAMEl2-29" parent="7baba1c4bc27f4b0-4" source="7baba1c4bc27f4b0-22">
          <mxGeometry relative="1" as="geometry">
            <mxPoint x="60" y="285" as="sourcePoint" />
            <Array as="points">
              <mxPoint x="90" y="285" />
              <mxPoint x="90" y="315" />
            </Array>
            <mxPoint as="offset" />
          </mxGeometry>
        </mxCell>
        <UserObject label="&lt;div&gt;&lt;br&gt;&lt;/div&gt;&lt;div&gt;&lt;br&gt;&lt;/div&gt;&lt;div&gt;&lt;br&gt;&lt;/div&gt;&lt;div&gt;&lt;br&gt;&lt;/div&gt;&lt;div&gt;&lt;br&gt;&lt;/div&gt;微信用户" tooltip="" id="UgXaeHITUK82c2qAMEl2-3">
          <mxCell style="shape=umlLifeline;perimeter=lifelinePerimeter;whiteSpace=wrap;html=1;container=1;dropTarget=0;collapsible=0;recursiveResize=0;outlineConnect=0;portConstraint=eastwest;newEdgeStyle={&quot;curved&quot;:0,&quot;rounded&quot;:0};participant=umlActor;fillColor=#ffe6cc;strokeColor=#d79b00;" vertex="1" parent="1">
            <mxGeometry x="120" y="80" width="60" height="680" as="geometry" />
          </mxCell>
        </UserObject>
        <mxCell id="UgXaeHITUK82c2qAMEl2-8" value="Loop" style="shape=umlFrame;whiteSpace=wrap;html=1;pointerEvents=0;" vertex="1" parent="1">
          <mxGeometry x="500" y="150" width="210" height="160" as="geometry" />
        </mxCell>
        <mxCell id="UgXaeHITUK82c2qAMEl2-14" value="订单list不为空" style="text;html=1;align=center;verticalAlign=middle;resizable=0;points=[];autosize=1;strokeColor=none;fillColor=none;fontSize=12;" vertex="1" parent="1">
          <mxGeometry x="495" y="180" width="100" height="30" as="geometry" />
        </mxCell>
        <mxCell id="UgXaeHITUK82c2qAMEl2-15" value="" style="html=1;points=[[0,0,0,0,5],[0,1,0,0,-5],[1,0,0,0,5],[1,1,0,0,-5]];perimeter=orthogonalPerimeter;outlineConnect=0;targetShapes=umlLifeline;portConstraint=eastwest;newEdgeStyle={&quot;curved&quot;:0,&quot;rounded&quot;:0};" vertex="1" parent="1">
          <mxGeometry x="590" y="220" width="10" height="40" as="geometry" />
        </mxCell>
        <mxCell id="UgXaeHITUK82c2qAMEl2-16" value="批量生成订单" style="html=1;align=left;spacingLeft=2;endArrow=block;rounded=0;edgeStyle=orthogonalEdgeStyle;curved=0;rounded=0;fontSize=12;startSize=8;endSize=8;" edge="1" target="UgXaeHITUK82c2qAMEl2-15" parent="1">
          <mxGeometry relative="1" as="geometry">
            <mxPoint x="595" y="200" as="sourcePoint" />
            <Array as="points">
              <mxPoint x="625" y="230" />
            </Array>
          </mxGeometry>
        </mxCell>
        <mxCell id="UgXaeHITUK82c2qAMEl2-17" value="" style="endArrow=block;endFill=1;html=1;align=left;verticalAlign=top;rounded=0;fontSize=12;startSize=8;endSize=8;entryX=0.8;entryY=0.04;entryDx=0;entryDy=0;entryPerimeter=0;exitX=0.2;exitY=0.945;exitDx=0;exitDy=0;exitPerimeter=0;" edge="1" parent="1" source="7baba1c4bc27f4b0-16" target="7baba1c4bc27f4b0-13">
          <mxGeometry x="-1" relative="1" as="geometry">
            <mxPoint x="580" y="294" as="sourcePoint" />
            <mxPoint x="453.5" y="290" as="targetPoint" />
          </mxGeometry>
        </mxCell>
        <mxCell id="UgXaeHITUK82c2qAMEl2-18" value="1" style="edgeLabel;resizable=0;html=1;align=left;verticalAlign=bottom;" connectable="0" vertex="1" parent="UgXaeHITUK82c2qAMEl2-17">
          <mxGeometry x="-1" relative="1" as="geometry" />
        </mxCell>
        <mxCell id="UgXaeHITUK82c2qAMEl2-19" value="调用下单接口" style="edgeLabel;html=1;align=center;verticalAlign=middle;resizable=0;points=[];fontSize=12;" vertex="1" connectable="0" parent="UgXaeHITUK82c2qAMEl2-17">
          <mxGeometry x="0.3701" y="-1" relative="1" as="geometry">
            <mxPoint x="27" as="offset" />
          </mxGeometry>
        </mxCell>
        <mxCell id="UgXaeHITUK82c2qAMEl2-28" value="返回预支付交易码" style="html=1;verticalAlign=bottom;endArrow=open;dashed=1;endSize=8;curved=0;rounded=0;fontSize=12;exitX=0.9;exitY=0.99;exitDx=0;exitDy=0;exitPerimeter=0;" edge="1" parent="1" source="7baba1c4bc27f4b0-13" target="7baba1c4bc27f4b0-4">
          <mxGeometry relative="1" as="geometry">
            <mxPoint x="560" y="390" as="sourcePoint" />
            <mxPoint x="480" y="390" as="targetPoint" />
          </mxGeometry>
        </mxCell>
        <mxCell id="UgXaeHITUK82c2qAMEl2-31" value="返回二维码图片" style="endArrow=open;endSize=12;dashed=1;html=1;rounded=0;fontSize=12;curved=1;exitX=0.5;exitY=1;exitDx=0;exitDy=0;exitPerimeter=0;" edge="1" parent="1" source="7baba1c4bc27f4b0-22" target="UgXaeHITUK82c2qAMEl2-4">
          <mxGeometry width="160" relative="1" as="geometry">
            <mxPoint x="350" y="430" as="sourcePoint" />
            <mxPoint x="510" y="430" as="targetPoint" />
          </mxGeometry>
        </mxCell>
        <mxCell id="UgXaeHITUK82c2qAMEl2-32" value="打开客户端" style="html=1;verticalAlign=bottom;endArrow=block;curved=0;rounded=0;fontSize=12;startSize=8;endSize=8;" edge="1" parent="1" source="UgXaeHITUK82c2qAMEl2-4" target="7baba1c4bc27f4b0-10">
          <mxGeometry width="80" relative="1" as="geometry">
            <mxPoint x="150" y="450" as="sourcePoint" />
            <mxPoint x="290" y="460" as="targetPoint" />
          </mxGeometry>
        </mxCell>
        <mxCell id="UgXaeHITUK82c2qAMEl2-33" value="扫描二维码" style="html=1;verticalAlign=bottom;endArrow=block;curved=0;rounded=0;fontSize=12;startSize=8;endSize=8;entryX=0;entryY=0.075;entryDx=0;entryDy=0;entryPerimeter=0;" edge="1" parent="1" target="7baba1c4bc27f4b0-10">
          <mxGeometry width="80" relative="1" as="geometry">
            <mxPoint x="150" y="470" as="sourcePoint" />
            <mxPoint x="285" y="470" as="targetPoint" />
          </mxGeometry>
        </mxCell>
        <mxCell id="UgXaeHITUK82c2qAMEl2-37" value="提交支付申请" style="html=1;verticalAlign=bottom;endArrow=block;curved=0;rounded=0;fontSize=12;startSize=8;endSize=8;exitX=1;exitY=0.211;exitDx=0;exitDy=0;exitPerimeter=0;entryX=-0.3;entryY=-0.033;entryDx=0;entryDy=0;entryPerimeter=0;" edge="1" parent="1" source="7baba1c4bc27f4b0-10" target="UgXaeHITUK82c2qAMEl2-34">
          <mxGeometry width="80" relative="1" as="geometry">
            <mxPoint x="300" y="510" as="sourcePoint" />
            <mxPoint x="440" y="510" as="targetPoint" />
          </mxGeometry>
        </mxCell>
        <mxCell id="UgXaeHITUK82c2qAMEl2-40" value="确认支付密码" style="html=1;verticalAlign=bottom;endArrow=block;curved=0;rounded=0;fontSize=12;startSize=8;endSize=8;entryX=0.1;entryY=0.375;entryDx=0;entryDy=0;entryPerimeter=0;" edge="1" parent="1" source="UgXaeHITUK82c2qAMEl2-4" target="7baba1c4bc27f4b0-10">
          <mxGeometry width="80" relative="1" as="geometry">
            <mxPoint x="150" y="590" as="sourcePoint" />
            <mxPoint x="280" y="580" as="targetPoint" />
          </mxGeometry>
        </mxCell>
        <mxCell id="UgXaeHITUK82c2qAMEl2-36" value="通知用户输入密码" style="html=1;verticalAlign=bottom;endArrow=open;dashed=1;endSize=8;curved=0;rounded=0;fontSize=12;exitX=0;exitY=1;exitDx=0;exitDy=-5;exitPerimeter=0;" edge="1" parent="1" source="UgXaeHITUK82c2qAMEl2-34" target="7baba1c4bc27f4b0-10">
          <mxGeometry relative="1" as="geometry">
            <mxPoint x="440" y="540" as="sourcePoint" />
            <mxPoint x="296" y="540.5" as="targetPoint" />
          </mxGeometry>
        </mxCell>
        <mxCell id="UgXaeHITUK82c2qAMEl2-39" style="edgeStyle=none;curved=0;rounded=0;orthogonalLoop=1;jettySize=auto;html=1;exitX=0.536;exitY=0.687;exitDx=0;exitDy=0;exitPerimeter=0;fontSize=12;startSize=8;endSize=8;" edge="1" parent="1" source="7baba1c4bc27f4b0-2" target="7baba1c4bc27f4b0-3">
          <mxGeometry relative="1" as="geometry" />
        </mxCell>
        <mxCell id="UgXaeHITUK82c2qAMEl2-46" value="Text" style="edgeLabel;html=1;align=center;verticalAlign=middle;resizable=0;points=[];fontSize=12;" vertex="1" connectable="0" parent="UgXaeHITUK82c2qAMEl2-39">
          <mxGeometry x="-0.1138" y="-2" relative="1" as="geometry">
            <mxPoint as="offset" />
          </mxGeometry>
        </mxCell>
        <mxCell id="UgXaeHITUK82c2qAMEl2-47" value="提交支付密码" style="edgeLabel;html=1;align=center;verticalAlign=middle;resizable=0;points=[];fontSize=12;" vertex="1" connectable="0" parent="UgXaeHITUK82c2qAMEl2-39">
          <mxGeometry x="-0.1379" y="-5" relative="1" as="geometry">
            <mxPoint as="offset" />
          </mxGeometry>
        </mxCell>
        <mxCell id="UgXaeHITUK82c2qAMEl2-50" value="" style="html=1;verticalAlign=bottom;endArrow=block;curved=0;rounded=0;fontSize=12;startSize=8;endSize=8;" edge="1" parent="1" target="UgXaeHITUK82c2qAMEl2-4">
          <mxGeometry width="80" relative="1" as="geometry">
            <mxPoint x="150" y="450" as="sourcePoint" />
            <mxPoint x="305" y="450" as="targetPoint" />
          </mxGeometry>
        </mxCell>
        <mxCell id="UgXaeHITUK82c2qAMEl2-4" value="" style="html=1;points=[[0,0,0,0,5],[0,1,0,0,-5],[1,0,0,0,5],[1,1,0,0,-5]];perimeter=orthogonalPerimeter;outlineConnect=0;targetShapes=umlLifeline;portConstraint=eastwest;newEdgeStyle={&quot;curved&quot;:0,&quot;rounded&quot;:0};" vertex="1" parent="1">
          <mxGeometry x="145" y="420" width="10" height="150" as="geometry" />
        </mxCell>
        <mxCell id="UgXaeHITUK82c2qAMEl2-41" style="edgeStyle=none;curved=0;rounded=0;orthogonalLoop=1;jettySize=auto;html=1;exitX=0;exitY=1;exitDx=0;exitDy=-5;exitPerimeter=0;fontSize=12;startSize=8;endSize=8;" edge="1" parent="1" source="UgXaeHITUK82c2qAMEl2-4" target="UgXaeHITUK82c2qAMEl2-4">
          <mxGeometry relative="1" as="geometry" />
        </mxCell>
      </root>
    </mxGraphModel>
  </diagram>
</mxfile>
